<?xml version="1.0"?>
<svg xmlns="http://www.w3.org/2000/svg" xmlns:xlink="http://www.w3.org/1999/xlink" version="1.1" viewBox="0 0 224 224" width="500px" height="500px"><g fill="none" fill-rule="nonzero" stroke="none" stroke-width="1" stroke-linecap="butt" stroke-linejoin="miter" stroke-miterlimit="10" stroke-dasharray="" stroke-dashoffset="0" font-family="none" font-weight="none" font-size="none" text-anchor="none" style="mix-blend-mode: normal"><path d="M0,224v-224h224v224z" fill="none"/><g fill="#d2d2d2"><g id="surface1"><path d="M86.905,26.88c-10.6575,0 -19.845,7.525 -21.945,17.9725l-1.82,8.9075h-22.82c-12.3725,0 -22.4,10.0275 -22.4,22.4v94.08c0,12.3725 10.0275,22.4 22.4,22.4h143.36c12.3725,0 22.4,-10.0275 22.4,-22.4v-94.08c0,-12.3725 -10.0275,-22.4 -22.4,-22.4h-22.82l-1.82,-8.9075c-2.1,-10.465 -11.2875,-17.9725 -21.945,-17.9725zM86.905,35.84h50.19c6.37,0 11.9175,4.5325 13.1775,10.78l1.785,8.9075c0.8575,4.1825 4.5325,7.1925 8.8025,7.1925h22.82c7.4025,0 13.44,6.0375 13.44,13.44v94.08c0,7.4025 -6.0375,13.44 -13.44,13.44h-143.36c-7.4025,0 -13.44,-6.0375 -13.44,-13.44v-94.08c0,-7.4025 6.0375,-13.44 13.44,-13.44h22.82c4.27,0 7.945,-3.01 8.8025,-7.1925l1.785,-8.9075c1.26,-6.2475 6.8075,-10.78 13.1775,-10.78zM112,76.16c-24.745,0 -44.8,20.055 -44.8,44.8c0,24.745 20.055,44.8 44.8,44.8c24.745,0 44.8,-20.055 44.8,-44.8c0,-24.745 -20.055,-44.8 -44.8,-44.8zM112,85.12c19.7575,0 35.84,16.0825 35.84,35.84c0,19.7575 -16.0825,35.84 -35.84,35.84c-19.7575,0 -35.84,-16.0825 -35.84,-35.84c0,-19.7575 16.0825,-35.84 35.84,-35.84z"/></g></g></g></svg>
