<?xml version="1.0"?>
<svg xmlns="http://www.w3.org/2000/svg" xmlns:xlink="http://www.w3.org/1999/xlink" version="1.1" viewBox="0 0 224 224" width="500px" height="500px"><g fill="none" fill-rule="nonzero" stroke="none" stroke-width="1" stroke-linecap="butt" stroke-linejoin="miter" stroke-miterlimit="10" stroke-dasharray="" stroke-dashoffset="0" font-family="none" font-weight="none" font-size="none" text-anchor="none" style="mix-blend-mode: normal"><path d="M0,224v-224h224v224z" fill="none"/><g fill="#d2d2d2"><path d="M22.4,17.92c-7.37217,0 -13.44,6.07282 -13.44,13.44v40.32v44.8v76.16c0,7.36718 6.06783,13.44 13.44,13.44h179.2c7.36988,0 13.44,-6.07012 13.44,-13.44v-76.16v-44.8v-22.4c0,-7.36988 -6.07012,-13.44 -13.44,-13.44h-120.96c0.38783,0 -0.13892,0.00163 -1.23375,-1.26c-1.09483,-1.26163 -2.44245,-3.35466 -3.85,-5.6c-1.40754,-2.24534 -2.88269,-4.6411 -4.7425,-6.74625c-1.85981,-2.10515 -4.42573,-4.31375 -8.09375,-4.31375zM22.4,26.88h40.32c-0.27216,0 0.27391,0.0314 1.3825,1.28625c1.10861,1.25485 2.45789,3.33909 3.85875,5.57375c1.40086,2.23466 2.85155,4.62163 4.6725,6.72c1.82095,2.09837 4.32784,4.34 8.00625,4.34h120.96c2.52196,0 4.48,1.95804 4.48,4.48v9.8c-1.41072,-0.50875 -2.90374,-0.84 -4.48,-0.84h-179.2c-1.57625,0 -3.06929,0.33125 -4.48,0.84v-27.72c0,-2.52466 1.95137,-4.48 4.48,-4.48zM22.4,67.2h179.2c2.53133,0 4.48,1.94867 4.48,4.48v44.8v76.16c0,2.52196 -1.95804,4.48 -4.48,4.48h-179.2c-2.52863,0 -4.48,-1.95534 -4.48,-4.48v-76.16v-44.8c0,-2.53133 1.94866,-4.48 4.48,-4.48z"/></g></g></svg>
