<?xml version="1.0"?>
<svg xmlns="http://www.w3.org/2000/svg" xmlns:xlink="http://www.w3.org/1999/xlink" version="1.1" viewBox="0 0 224 224" width="500px" height="500px"><g fill="none" fill-rule="nonzero" stroke="none" stroke-width="1" stroke-linecap="butt" stroke-linejoin="miter" stroke-miterlimit="10" stroke-dasharray="" stroke-dashoffset="0" font-family="none" font-weight="none" font-size="none" text-anchor="none" style="mix-blend-mode: normal"><path d="M0,224v-224h224v224z" fill="none"/><g fill="#d2d2d2"><g id="surface1"><path d="M112,4.48c-2.94,0 -5.565,0.1925 -7.84,0.7c-1.1375,0.245 -2.2225,0.5075 -3.36,1.12c-0.56,0.315 -1.1725,0.805 -1.82,1.54c-0.4025,0.4725 -0.595,1.3125 -0.84,2.1l-0.28,-0.14c-1.54,4.6025 -12.32,39.7425 -22.96,74.76c-1.7325,5.7225 -3.0975,10.1325 -4.76,15.68l-0.42,0.28c0.0875,0.14 0.1925,0.28 0.28,0.42c-2.6075,8.645 -5.25,17.185 -7.42,24.5h-14.14c-4.025,0 -6.9825,2.4675 -8.54,5.6l-0.14,0.28l-0.14,0.42l-21.56,68.46l-0.14,0.7v5.18c0,2.345 0.8225,4.7425 2.52,6.44c1.6975,1.6975 4.095,2.52 6.44,2.52h170.24c2.345,0 4.7425,-0.8225 6.44,-2.52c1.6975,-1.6975 2.52,-4.095 2.52,-6.44v-5.18l-0.14,-0.7l-21.56,-68.18v-0.28h-0.14c-1.12,-3.815 -4.76,-6.3 -8.68,-6.3h-14c-2.24,-7.56 -4.9875,-16.38 -7.7,-25.34c-1.6625,-5.495 -2.905,-9.8875 -4.62,-15.54c-5.3025,-17.5 -10.71,-35.21 -14.98,-49c-4.27,-13.79 -7.14,-23.17 -8.26,-26.04l-0.28,0.14c-0.245,-0.6475 -0.35,-1.4175 -0.7,-1.82c-0.6475,-0.735 -1.26,-1.225 -1.82,-1.54c-1.1375,-0.6125 -2.2225,-0.875 -3.36,-1.12c-2.275,-0.5075 -4.9,-0.7 -7.84,-0.7zM112,13.44c2.4325,0 4.725,0.28 6.02,0.56h0.14c0.5075,1.4175 3.08,9.9225 5.6,18.06c-1.0325,1.05 -6.0025,3.78 -11.76,3.78c-3.0275,0 -6.02,-0.5425 -8.26,-1.4c-2.1175,-0.805 -3.255,-2.03 -3.36,-2.1c1.365,-4.41 5.2325,-17.185 5.6,-18.34c1.295,-0.28 3.5875,-0.56 6.02,-0.56zM102.76,43.54c2.835,0.805 5.9675,1.26 9.24,1.26c3.325,0 6.4225,-0.3325 9.24,-1.12c-0.105,0.385 -0.28,0.7 -0.28,1.12c0,2.4675 2.0125,4.48 4.48,4.48c1.2425,0 2.415,-0.455 3.22,-1.26c1.645,5.3025 3.5175,11.2 5.32,17.08c-1.155,1.085 -2.94,2.2925 -5.32,3.36c-0.805,-0.805 -1.9775,-1.26 -3.22,-1.26c-2.1175,0 -3.7275,1.54 -4.2,3.5c-2.87,0.595 -5.985,0.98 -9.24,0.98c-3.2375,0 -6.3525,-0.2625 -9.24,-0.84c-0.42,-2.03 -2.0475,-3.64 -4.2,-3.64c-1.2425,0 -2.415,0.455 -3.22,1.26c-2.275,-1.015 -4.095,-2.0825 -5.18,-3.08c2.2925,-7.455 3.4475,-11.1475 5.32,-17.22c0.805,0.735 1.9075,1.12 3.08,1.12c2.4675,0 4.48,-2.0125 4.48,-4.48c0,-0.455 -0.1575,-0.84 -0.28,-1.26zM112,53.76c-2.4675,0 -4.48,2.0125 -4.48,4.48c0,2.4675 2.0125,4.48 4.48,4.48c2.4675,0 4.48,-2.0125 4.48,-4.48c0,-2.4675 -2.0125,-4.48 -4.48,-4.48zM136.78,74.2c1.3825,4.55 2.52,8.2775 3.92,12.88c1.1725,3.885 2.0825,6.8075 3.22,10.64c-2.2225,1.96 -5.4775,4.095 -9.66,5.74c-6.09,2.3975 -13.86,4.06 -22.26,4.06c-8.435,0 -16.3275,-1.47 -22.54,-3.78c-4.025,-1.4875 -7.1575,-3.4825 -9.38,-5.32c1.2075,-4.0075 2.1175,-7.105 3.36,-11.2c1.82,-5.9675 2.135,-6.93 3.92,-12.74c1.855,1.12 3.9375,2.1 6.16,2.94c5.3375,2.0125 11.6725,3.22 18.48,3.22c6.8075,0 13.0725,-1.2075 18.34,-3.22c2.3625,-0.8925 4.4975,-1.995 6.44,-3.22zM146.72,107.24c1.4525,4.9 2.87,9.66 4.2,14.14c-1.75,0.6125 -3.08,2.1 -3.08,4.06c0,2.4675 2.0125,4.48 4.48,4.48c0.3675,0 0.6475,-0.1925 0.98,-0.28c0.07,0.21 0.21,0.49 0.28,0.7c-2.5025,2.31 -6.23,4.6725 -10.78,6.72c-0.7175,-1.5225 -2.135,-2.66 -3.92,-2.66c-2.4675,0 -4.48,2.0125 -4.48,4.48c0,0.455 0.1575,0.84 0.28,1.26c-6.7375,1.995 -14.4725,3.22 -22.68,3.22c-8.225,0 -16.0825,-1.12 -22.82,-2.94c0.1925,-0.5075 0.42,-0.9625 0.42,-1.54c0,-2.4675 -2.0125,-4.48 -4.48,-4.48c-2.0125,0 -3.64,1.4 -4.2,3.22c-4.55,-1.9425 -8.19,-4.3575 -10.64,-6.58c0.1225,-0.4025 0.2975,-0.9975 0.42,-1.4c0.3325,0.0875 0.6125,0.28 0.98,0.28c2.4675,0 4.48,-2.0125 4.48,-4.48c0,-1.9075 -1.26,-3.4125 -2.94,-4.06c1.295,-4.34 2.625,-8.9775 4.06,-13.72c1.2425,0.805 2.52,1.68 3.92,2.38c-0.315,0.6125 -0.56,1.225 -0.56,1.96c0,2.4675 2.0125,4.48 4.48,4.48c2.065,0 3.675,-1.47 4.2,-3.36c6.7025,2.1 14.4725,3.36 22.68,3.36c8.3125,0 16.0125,-1.4 22.68,-3.64c0.42,2.03 2.0475,3.64 4.2,3.64c2.4675,0 4.48,-2.0125 4.48,-4.48c0,-0.91 -0.385,-1.68 -0.84,-2.38c1.4875,-0.77 2.905,-1.505 4.2,-2.38zM112,143.36c2.4675,0 4.48,-2.0125 4.48,-4.48c0,-2.4675 -2.0125,-4.48 -4.48,-4.48c-2.4675,0 -4.48,2.0125 -4.48,4.48c0,2.4675 2.0125,4.48 4.48,4.48zM98.56,120.96c-2.4675,0 -4.48,2.0125 -4.48,4.48c0,2.4675 2.0125,4.48 4.48,4.48c2.4675,0 4.48,-2.0125 4.48,-4.48c0,-2.4675 -2.0125,-4.48 -4.48,-4.48zM125.44,120.96c-2.4675,0 -4.48,2.0125 -4.48,4.48c0,2.4675 2.0125,4.48 4.48,4.48c2.4675,0 4.48,-2.0125 4.48,-4.48c0,-2.4675 -2.0125,-4.48 -4.48,-4.48zM48.44,134.4h11.48c-1.68,5.6525 -3.185,10.85 -4.2,14.42c-0.5775,2.0125 -1.085,3.5525 -1.4,4.76c-0.1575,0.6125 -0.175,1.1025 -0.28,1.54c-0.105,0.4375 -0.28,0.35 -0.28,1.68c0,9.275 7.7,16.765 18.2,22.26c10.5,5.495 24.5525,9.1 40.04,9.1c15.4875,0 29.54,-3.605 40.04,-9.1c10.5,-5.495 18.2,-12.985 18.2,-22.26c0,-1.3125 -0.1925,-1.2425 -0.28,-1.68c-0.0875,-0.4375 -0.1225,-0.9275 -0.28,-1.54c-0.315,-1.2075 -0.84,-2.7475 -1.4,-4.76c-0.9975,-3.57 -2.415,-8.7675 -4.06,-14.42h11.34c0.2275,0 0.28,0.0175 0.28,0l21.28,68.18v3.5h-170.24v-3.5l21,-67.48c0.0525,-0.105 0.07,-0.07 0.14,-0.14c0.175,-0.175 0.3325,-0.455 0.42,-0.56zM156.38,139.72c1.26,4.235 2.5725,8.6625 3.36,11.48c0.56,1.9775 0.98,3.5175 1.26,4.62c0.105,0.4375 0.21,0.7175 0.28,0.98c0,0.035 0,0.105 0,0.14c-0.07,3.7275 -4.5325,9.485 -13.44,14.14c-8.9775,4.7075 -21.7525,8.12 -35.84,8.12c-14.0875,0 -26.8625,-3.4125 -35.84,-8.12c-8.9075,-4.655 -13.37,-10.4125 -13.44,-14.14c0,-0.035 0,-0.105 0,-0.14c0.07,-0.2625 0.175,-0.5425 0.28,-0.98c0.28,-1.1025 0.7,-2.6425 1.26,-4.62c0.7525,-2.66 2.0475,-6.86 3.22,-10.78c3.4825,2.4675 7.595,4.6725 12.32,6.44c9.0825,3.4125 20.2475,5.46 32.2,5.46c11.76,0 22.68,-2.2225 31.64,-5.74c4.935,-1.9425 9.17,-4.2 12.74,-6.86z"/></g></g></g></svg>
