<?xml version="1.0"?>
<svg xmlns="http://www.w3.org/2000/svg" xmlns:xlink="http://www.w3.org/1999/xlink" version="1.1" viewBox="0 0 224 224" width="512px" height="512px"><g fill="none" fill-rule="nonzero" stroke="none" stroke-width="1" stroke-linecap="butt" stroke-linejoin="miter" stroke-miterlimit="10" stroke-dasharray="" stroke-dashoffset="0" font-family="none" font-weight="none" font-size="none" text-anchor="none" style="mix-blend-mode: normal"><path d="M0,224v-224h224v224z" fill="none"/><g id="original-icon" fill="#d2d2d2"><path d="M84,38.5v7l-3.5,-3.5v14.33496c-50.77151,1.86987 -79.83691,41.8086 -79.83691,41.8086c-0.67223,0.93002 -0.84591,2.13047 -0.46484,3.21289c0,0 21.96741,61.24749 80.37012,68.97461l-0.06836,11.64844c-0.00537,0.93178 0.361,1.82724 1.01795,2.48804c0.65695,0.6608 1.55026,1.03239 2.48205,1.03247h136.5c1.93292,-0.00019 3.49981,-1.56708 3.5,-3.5v-140c-0.00019,-1.93292 -1.56708,-3.49981 -3.5,-3.5zM87.5,45.5h129.5v133h-129.47949l0.04785,-7.2666c1.72209,0.10154 3.44228,0.26034 5.16797,0.2666c0.00456,0.00001 0.00911,0.00001 0.01367,0c16.14866,0 38.02205,-4.63979 59.05566,-11.70312c21.03362,-7.06334 41.08425,-16.4708 53.42969,-26.72852c0.82521,-0.68448 1.29121,-1.7094 1.26455,-2.7812c-0.02666,-1.07181 -0.54305,-2.07228 -1.40127,-2.71489c-5.49889,-4.12417 -10.94056,-7.06565 -15.41504,-9.38574c-4.47447,-2.3201 -8.04976,-4.19614 -9.29687,-5.30469c-1.30793,-1.16109 -3.27216,-1.1786 -4.60059,-0.04102c-24.46201,20.95651 -49.75131,38.88965 -83.67187,38.88965c-1.59548,0 -3.08821,-0.18062 -4.61426,-0.30078v-4.97656c2.05424,0.22157 4.03154,0.54688 6.24805,0.54688c45.1164,0 77.08203,-44.75488 77.08203,-44.75488c0.8427,-1.16118 0.89147,-2.71905 0.12305,-3.93066c0,0 -26.22236,-40.3095 -83.45312,-42.00684zM87.5,63.30078c49.46965,1.52055 72.44335,31.59679 76.0293,36.79101c-4.18846,5.36834 -32.41805,39.9082 -69.78125,39.9082c-2.2212,0 -4.2154,-0.29907 -6.24805,-0.54687v-4.0332c2.22269,0.43511 4.30532,1.08008 6.80176,1.08008c14.66372,0 28.33082,-8.6433 38.49316,-16.98047c10.16234,-8.33718 16.92578,-16.69336 16.92578,-16.69336c0.93237,-1.15358 1.03645,-2.76955 0.25976,-4.0332c0,0 -19.28901,-30.32048 -62.48047,-31.99218zM80.5,63.33496v3.52735c-37.37729,1.98103 -58.89844,33.55078 -58.89844,33.55078c-0.62186,0.9186 -0.77149,2.0776 -0.40332,3.12402c0,0 16.35854,46.33511 59.32226,53.86719l0.04102,5.81055c-50.68506,-7.33976 -71.11915,-57.54206 -72.98047,-62.45312c3.08173,-4.0438 28.73989,-35.67664 72.91895,-37.42676zM87.5,73.79394c34.94422,1.41283 51.2363,21.28686 54.89258,26.48926c-1.28882,1.54033 -5.59955,6.9025 -14.03418,13.82226c-9.56891,7.85021 -22.24635,15.39453 -34.05664,15.39453c-2.54687,0 -4.66282,-0.55619 -6.80176,-1.08008v-29.69531c8.16241,1.67705 13.775,7.60434 17.72559,18.01953c0.40386,1.06455 1.30026,1.86615 2.40315,2.14901c1.10289,0.28286 2.27444,0.01163 3.1408,-0.72714l17.5,-14.875c1.38275,-1.17761 1.6351,-3.21719 0.58105,-4.69629c0,0 -3.46691,-4.79878 -10.6914,-9.26269c-6.60077,-4.07853 -16.99345,-7.69989 -30.65918,-8.36035zM80.5,73.86914v6.94531c-25.81379,1.68625 -41.23437,20.68555 -41.23437,20.68555c-0.70793,0.88648 -0.94234,2.06106 -0.62891,3.15137c0,0 9.67785,32.97217 41.86328,40.58496v4.99023c-35.27512,-7.02394 -50.20981,-42.77809 -51.95312,-47.33203c2.76542,-3.80276 21.14001,-27.19288 51.95313,-29.02539zM87.50684,87.97168c12.27268,0.64867 21.34194,3.84094 26.97461,7.32129c4.45157,2.75057 5.12052,4.01568 6.19336,5.26367l-11.04687,9.39258c-4.79704,-9.81999 -12.1764,-16.58935 -22.1211,-18.23144c0.00003,-0.7941 0.00075,-1.56974 0,-2.46777c-0.00053,-0.6388 0.0007,-0.67738 0,-1.27832zM80.50684,88.1084c0.00062,0.54412 -0.00048,0.57048 0,1.1416c0.00109,1.31153 0.00082,2.62889 0,3.60938c-0.00041,0.49024 0.00117,0.89645 0,1.17578c-0.00058,0.13965 -0.00614,0.24626 -0.00684,0.30761c-0.00033,0.0308 -0.00027,0.05222 0,0.04102c0.00014,-0.0056 0.00369,-0.01155 0.00684,-0.06836c-0.0039,0.06145 -0.00618,0.123 -0.00684,0.18457c-0.00005,0.00048 0,0.01367 0,0.01367c-15.82292,0 -23.52246,8.49707 -23.52246,8.49707c-0.88467,0.91942 -1.19898,2.24738 -0.82031,3.46582c0,0 6.2534,19.16409 24.34277,26.84473v4.65527c-24.09055,-6.62423 -32.80308,-28.55401 -34.39844,-33.30469c1.68521,-1.98169 13.72977,-14.93735 34.40527,-16.56348zM80.5,98.62891v26.75586c-11.08794,-6.20674 -15.61873,-16.23742 -16.61816,-18.94922c2.01882,-1.83857 7.8702,-6.44501 16.61816,-7.80664zM178.42481,119.69043c2.36532,1.57065 4.74563,3.01264 8.03223,4.7168c3.00074,1.55594 6.48848,3.8328 9.88476,6.00195c-11.4268,8.28332 -28.31312,16.56059 -46.76465,22.75684c-20.50261,6.88502 -42.03646,11.3317 -56.81348,11.33398c-1.73337,-0.0063 -3.46424,-0.15632 -5.19531,-0.2666l-0.04102,-5.79687c1.52432,0.10763 2.99202,0.29394 4.58691,0.29394c35.4835,0 62.03926,-18.44825 86.31055,-39.04004zM17.26074,144.36816c-0.91004,-0.00907 -1.78783,0.33665 -2.44727,0.96387l-5.14746,4.74414c-0.93651,0.84327 -1.34743,2.12487 -1.07588,3.35548c0.27155,1.23062 1.18366,2.22027 2.38808,2.59111c1.20442,0.37084 2.51522,0.06562 3.43193,-0.79913l5.14746,-4.74414c1.07839,-0.96276 1.45399,-2.48941 0.9454,-3.84261c-0.50859,-1.3532 -1.79673,-2.25455 -3.24228,-2.26872zM28.92969,155.55859c-1.03098,0.02955 -1.99645,0.51229 -2.63867,1.31934l-4.44336,5.40723c-1.227,1.49505 -1.0097,3.70171 0.48535,4.92871c1.49505,1.227 3.70171,1.0097 4.92871,-0.48535l4.44336,-5.41406c0.88983,-1.05488 1.07678,-2.53415 0.47738,-3.77724c-0.5994,-1.2431 -1.87327,-2.01797 -3.25277,-1.97862zM42.34863,164.87598c-1.2805,-0.02202 -2.4708,0.65703 -3.10351,1.77051l-3.54785,6.0293c-0.69159,1.07965 -0.73755,2.45101 -0.11981,3.57454c0.61775,1.12353 1.80034,1.81941 3.08248,1.81384c1.28215,-0.00557 2.45865,-0.71168 3.06662,-1.84054l3.55469,-6.0293c0.65165,-1.07177 0.68,-2.4103 0.07432,-3.50871c-0.60568,-1.09841 -1.75279,-1.78877 -3.00694,-1.80965zM56.66992,171.91699c-1.40223,0.07048 -2.62666,0.97199 -3.11035,2.29004l-2.50195,6.53515c-0.49041,1.17684 -0.30217,2.52725 0.49137,3.52512c0.79355,0.99787 2.06688,1.48536 3.32393,1.27255c1.25705,-0.21281 2.29897,-1.09225 2.71985,-2.29571l2.50195,-6.53516c0.4411,-1.10677 0.28895,-2.36191 -0.40382,-3.33123c-0.69277,-0.96932 -1.83101,-1.51971 -3.02099,-1.46076z"/></g></g></svg>
