<?xml version="1.0"?>
<svg xmlns="http://www.w3.org/2000/svg" xmlns:xlink="http://www.w3.org/1999/xlink" version="1.1" viewBox="0 0 224 224" width="500px" height="500px"><g fill="none" fill-rule="nonzero" stroke="none" stroke-width="1" stroke-linecap="butt" stroke-linejoin="miter" stroke-miterlimit="10" stroke-dasharray="" stroke-dashoffset="0" font-family="none" font-weight="none" font-size="none" text-anchor="none" style="mix-blend-mode: normal"><path d="M0,224v-224h224v224z" fill="none"/><g fill="#d2d2d2"><path d="M112.46375,8.75875c-28.78718,0 -54.84706,11.82088 -73.5525,30.84375c-1.28918,-2.80135 -2.50522,-6.44656 -3.2725,-11.48c-0.2614,-1.70744 -1.48102,-3.11255 -3.13473,-3.61146c-1.65371,-0.49892 -3.44694,-0.00277 -4.60902,1.27521c-6.92453,7.63677 -9.5972,18.12607 -10.85875,26.67c-1.13283,7.6722 -0.91159,12.64682 -0.875,13.86c-4.56585,6.67654 -7.67403,11.79273 -9.3625,15.5925c-1.81413,4.08257 -2.35564,7.28431 -2.35375,9.8175c0,1.82538 0.10354,2.99048 0.2975,3.955c0.09698,0.48226 0.20984,0.92312 0.41125,1.39125c0.10071,0.23408 0.22305,0.47238 0.385,0.72625c0.16195,0.25388 0.63,0.7875 0.63,0.7875c0.58385,0.58089 1.31651,0.9896 2.1175,1.18125c-1.07808,4.68029 -2.19625,10.10085 -2.19625,16.66875c0,20.20571 8.95236,44.51242 26.635,64.1025c17.68264,19.59009 44.35325,34.3 79.17875,34.3c41.9347,0 69.31391,-23.31593 85.5575,-49.07c16.24359,-25.75407 22.02375,-53.49134 22.02375,-66.21125c0,-8.33791 -1.4904,-14.50131 -1.9075,-16.24875c-0.53062,-2.21521 -2.6389,-3.67971 -4.9,-3.40375c-0.49957,-3.81021 -0.32282,-6.38762 -1.3125,-10.59625c-2.41246,-10.25891 -6.31034,-20.96337 -13.5975,-28.14c-1.06687,-1.04635 -2.58518,-1.49193 -4.04831,-1.18806c-1.46312,0.30387 -2.67844,1.31717 -3.24044,2.70181c-1.91509,-2.13942 -3.21616,-4.36571 -5.78375,-6.34375c-2.32356,-1.79004 -4.96788,-3.45641 -7.875,-4.99625c-0.20595,-0.22697 -0.43465,-0.43221 -0.6825,-0.6125c-17.5279,-13.76289 -39.67134,-21.97125 -63.67375,-21.97125zM112.46375,17.71875c10.54791,0 20.66708,1.76545 30.12625,4.9525c-2.49675,-0.15405 -5.06263,-0.26206 -7.76125,-0.27125h-0.00875c-2.44983,0.02953 -4.42165,2.02137 -4.42644,4.47137c-0.00478,2.45001 1.95924,4.44953 4.40894,4.48863h0.0175c0.03584,0.00013 0.05161,0.01732 0.0875,0.0175c5.06309,0.0194 9.28479,1.62454 12.59125,3.57875c-1.36588,0.29941 -2.91509,0.55679 -3.89375,0.90125c-1.74238,0.61526 -2.92832,2.23707 -2.9864,4.08397c-0.05808,1.8469 1.02363,3.54002 2.7239,4.26354c10.20329,4.34004 20.55107,9.46734 27.62375,15.39125c4.09212,3.42746 6.58778,6.98789 8.1025,10.7625c-0.95436,-0.30827 -1.62393,-1.06257 -2.91375,-0.98c-1.49845,0.09673 -2.84882,0.93764 -3.59665,2.23974c-0.74783,1.3021 -0.79367,2.89224 -0.1221,4.23526c3.38526,6.75294 3.56159,15.40236 2.75625,24.36c-0.084,-0.09453 -0.56,-0.76125 -0.56,-0.76125c-1.31969,-1.5196 -3.49071,-1.97274 -5.30808,-1.10791c-1.81737,0.86483 -2.83504,2.83537 -2.48817,4.81791c0,0 1.35103,7.82782 0.69125,17.70125c-0.26069,3.90139 -1.21045,8.03111 -2.28375,12.06625c-0.97029,-0.88627 -2.28075,-1.30188 -3.58447,-1.1368c-1.30372,0.16507 -2.46924,0.89417 -3.18803,1.9943c0,0 -4.2589,6.50492 -11.19125,13.0375c-6.93235,6.53257 -16.28525,12.635 -25.8125,12.635c-13.08638,0 -21.07162,-4.03982 -27.02,-8.21625c6.53472,-1.08349 12.42617,-2.85133 16.77375,-5.22375c3.44724,-1.88112 6.17097,-3.85008 8.12,-5.4075c0.97452,-0.77871 1.75603,-1.45354 2.31875,-1.95125c0.56272,-0.49771 1.25894,-1.04138 0.67375,-0.62125v0.00875c1.0222,-0.73164 1.25338,-0.7353 1.25125,-0.735c-0.00214,0.0003 0.29532,-0.01794 1.46125,0.2975c2.46366,0.66838 4.41096,-0.00851 6.1075,-1.18125c1.69653,-1.17321 3.24625,-3.35932 3.24625,-6.04625c0,-2.2826 -0.87611,-3.82745 -1.925,-5.32c-1.04889,-1.49255 -2.42243,-2.8713 -4.1125,-4.12125c-3.37826,-2.49852 -8.08615,-4.4571 -13.6675,-4.45375h-0.00875c-6.22758,0.00272 -10.40221,2.54172 -13.1425,4.34875c-2.74176,1.808 -4.03425,2.86125 -8.11125,2.86125c-2.96255,0 -8.31163,-3.06284 -12.46,-6.81625c-2.07419,-1.87671 -3.88717,-3.83228 -5.1625,-5.3375c-0.47313,-0.55843 -0.78326,-0.96073 -1.085,-1.35625c0.06805,-0.46539 0.06363,-0.90875 0.23625,-1.26875c0.26625,-0.55512 0.63663,-0.77668 1.575,-0.9975c3.17546,0.53056 6.08831,1.09426 8.2775,1.5575c2.4693,0.52251 3.75824,0.9556 5.7225,1.04125c2.2397,0.09642 4.20595,-1.47733 4.6025,-3.68375c0.88203,-4.93656 0.00055,-9.40005 -1.12,-12.76625c-0.54801,-1.64624 -0.81566,-1.92463 -1.35625,-3.045c1.37199,-1.25609 2.8602,-2.63439 4.94375,-4.12125c2.88397,-2.05806 5.12154,-3.45454 6.1775,-4.19125c0.00292,-0.00291 0.00584,-0.00583 0.00875,-0.00875c1.71532,-1.19944 2.82344,-2.64323 3.78,-4.22625c0.95655,-1.58303 1.82,-3.09277 1.82,-5.5825c0,-2.36179 -1.55729,-4.38148 -2.73875,-5.20625c-1.18147,-0.82476 -2.38,-1.07625 -2.38,-1.07625c-0.27033,-0.06035 -0.54568,-0.0955 -0.8225,-0.105c0,0 -2.23072,-0.09213 -5.95,-0.4025h-0.00875c-6.59736,-0.55454 -4.83176,-0.4586 -8.61875,-3.80625c0,-0.00292 0,-0.00583 0,-0.00875c-1.46799,-1.29483 -3.30464,-3.36628 -4.69,-4.8825c0.16307,-0.65335 0.0336,-0.80804 1.19875,-3.0275c1.80863,-3.44546 5.31819,-8.58601 12.145,-14.7525c1.37505,-1.24232 1.84341,-3.20296 1.1783,-4.93263c-0.66511,-1.72967 -2.32641,-2.87139 -4.17955,-2.87237c-7.63047,0 -14.87061,3.9532 -20.615,7.595c-4.73521,3.00201 -7.05052,5.0465 -8.19875,6.01125c-1.66939,-0.6097 -3.06967,-1.4525 -7.28875,-1.4525c-6.37432,0 -10.60524,1.17147 -13.39625,2.17875c17.09592,-17.53482 40.95777,-28.4375 67.43625,-28.4375zM160.43125,34.72875c7.94654,2.21327 14.25399,5.20792 18.795,8.70625c8.53884,6.57821 12.23429,14.4759 14.06125,20.3875c0.46877,1.49877 1.68799,2.64273 3.21356,3.01517c1.52557,0.37244 3.13477,-0.08101 4.24144,-1.19517c0.60852,1.94274 1.43122,3.73435 1.89875,5.7225c2.21427,9.41613 2.9575,18.87468 2.9575,23.77375c0.0015,1.26339 0.53633,2.46743 1.47275,3.31554c0.93642,0.84811 2.18738,1.26145 3.44475,1.13821c-0.00762,9.74314 -5.48412,37.37238 -20.6325,61.39c-15.15897,24.03441 -39.31951,44.89625 -77.98,44.89625c-32.32522,0 -56.33251,-13.39915 -72.52875,-31.3425c-16.19624,-17.94335 -24.325,-40.60202 -24.325,-58.1c0,-13.33441 4.4275,-23.9225 4.4275,-23.9225c0.61817,-1.47489 0.40336,-3.16745 -0.56365,-4.44116c-0.96701,-1.27371 -2.53959,-1.93544 -4.12635,-1.73634c0.14352,-0.35741 0.01828,-0.37569 0.20125,-0.7875c1.4357,-3.23094 4.20732,-8.04978 9.24,-15.295c0.55666,-0.80181 0.83625,-1.76347 0.79625,-2.73875c0,0 -0.25689,-6.08042 0.875,-13.74625c0.65273,-4.42063 2.01222,-9.06676 3.80625,-13.405c1.2419,3.31509 2.6111,6.11744 4.03375,8.2775c0.32501,0.95023 0.95979,1.76373 1.8025,2.31c2.87145,3.26061 5.76625,4.75125 5.76625,4.75125c1.23002,0.53822 2.63657,0.49648 3.8325,-0.11375c0,0 5.13971,-2.65125 13.2825,-2.65125c4.09768,0 6.545,1.19875 6.545,1.19875c1.6119,0.76966 3.52697,0.50836 4.87375,-0.665c0,0 3.7363,-3.24183 8.86375,-6.4925c0.41135,-0.26078 0.90213,-0.43577 1.33,-0.69125c-0.85872,1.31585 -1.9981,2.80117 -2.59,3.92875c-2.32976,4.43822 -2.82625,7.81375 -2.82625,7.81375c-0.15138,1.26927 0.24659,2.54277 1.09375,3.5c0,0 4.15499,4.77117 7.2275,7.48125c3.31528,2.93065 6.24894,5.38454 13.8075,6.02c1.26527,0.10568 1.13815,0.07768 2.065,0.14c-0.02822,0.02688 -0.14836,0.18609 -0.1575,0.1925c0.09278,-0.06474 -3.14486,2.0234 -6.25625,4.24375c-3.11139,2.22035 -6.42337,4.59595 -8.68,7.46375c-1.07225,1.36486 -1.25975,3.22621 -0.48125,4.7775c0.63138,1.26275 1.46691,2.62119 2.275,5.04875c0.35535,1.06751 0.16972,2.44431 0.35,3.675c-2.42903,-0.51012 -5.36955,-1.12543 -8.98625,-1.6975c-0.45188,-0.07262 -0.91222,-0.07557 -1.365,-0.00875c-4.25396,0.63385 -7.33826,3.49808 -8.6275,6.18625c-1.28925,2.68817 -1.32125,5.10587 -1.32125,6.195c-0.00065,0.41112 0.05529,0.82038 0.16625,1.21625c0.32077,1.14058 0.51601,1.22342 0.7175,1.54875c0.20151,0.32534 0.41149,0.63395 0.65625,0.97125c0.4895,0.6746 1.1054,1.4587 1.86375,2.35375c1.51669,1.7901 3.56834,3.99176 5.99375,6.18625c4.85083,4.38898 11.02228,9.135 18.47125,9.135c6.17771,0 10.31904,-2.5416 13.04625,-4.34c2.7272,-1.7984 4.05577,-2.87 8.21625,-2.87c3.46866,-0.00343 6.36865,1.23794 8.33875,2.695c0.19537,0.14448 0.2451,0.26444 0.42,0.41125c-0.39876,0.0021 -0.68479,-0.17324 -1.11125,-0.11375c-1.9375,0.27023 -3.62963,1.17775 -5.22375,2.31875c-0.00292,0.00291 -0.00584,0.00583 -0.00875,0.00875c-0.89095,0.63965 -0.88009,0.73688 -1.3825,1.18125c-0.50241,0.44437 -1.15714,1.00698 -1.9775,1.6625c-1.64071,1.31104 -3.94145,2.96773 -6.825,4.54125c-5.76712,3.14704 -13.80217,5.95563 -23.87875,5.13625c-1.89709,-0.15549 -3.68535,0.90465 -4.45933,2.64364c-0.77398,1.73899 -0.36471,3.7772 1.02058,5.08261c3.45323,3.26368 17.49763,17.40375 41.86,17.40375c13.17291,0 24.19386,-7.75443 31.96375,-15.07625c1.45958,-1.37541 1.11729,-1.42791 2.35375,-2.75625c-0.0461,0.12423 0.00463,0.22159 -0.04375,0.34125c-0.79799,1.96935 -0.10293,4.22837 1.6641,5.40851c1.76703,1.18014 4.11998,0.95679 5.6334,-0.53475c9.7929,-9.65974 12.69551,-23.32491 13.43125,-34.335c0.05519,-0.82566 -0.09248,-0.68922 -0.06125,-1.4875c1.18597,0.34973 2.46375,0.19381 3.53082,-0.43086c1.06707,-0.62467 1.82856,-1.66254 2.10418,-2.86789c2.36783,-10.41567 3.90212,-21.7908 2.17,-32.45375c2.44222,0.37685 4.72845,-1.29476 5.11,-3.73625c1.72273,-11.26849 -4.23551,-20.75054 -12.60875,-27.76375c-4.63118,-3.87897 -10.09397,-7.14762 -15.8025,-10.12375c1.43767,-1.16157 2.01453,-3.08674 1.4525,-4.8475c-0.38609,-1.20405 -1.23825,-2.07635 -1.93375,-3.0275z"/></g></g></svg>
