<?xml version="1.0"?>
<svg xmlns="http://www.w3.org/2000/svg" xmlns:xlink="http://www.w3.org/1999/xlink" version="1.1" viewBox="0 0 224 224" width="500px" height="500px"><g fill="none" fill-rule="nonzero" stroke="none" stroke-width="1" stroke-linecap="butt" stroke-linejoin="miter" stroke-miterlimit="10" stroke-dasharray="" stroke-dashoffset="0" font-family="none" font-weight="none" font-size="none" text-anchor="none" style="mix-blend-mode: normal"><path d="M0,224v-224h224v224z" fill="none"/><g fill="#d2d2d2"><path d="M112,8.96c-56.85436,0 -103.04,46.18564 -103.04,103.04c0,56.85436 46.18564,103.04 103.04,103.04c56.85436,0 103.04,-46.18564 103.04,-103.04c0,-56.85436 -46.18564,-103.04 -103.04,-103.04zM112,17.92c35.78613,0 66.86689,19.91373 82.775,49.28h-82.775c-0.16953,-0.00086 -0.33897,0.0079 -0.5075,0.02625c-23.06237,0.26089 -42.00024,18.05222 -44.0825,40.64375l-31.4125,-51.19625c17.09764,-23.46041 44.70883,-38.75375 76.0025,-38.75375zM30.5725,64.96875l43.2425,70.46375c0.1485,0.25256 0.32141,0.48995 0.51625,0.70875c0.0029,0.00584 0.00582,0.01167 0.00875,0.0175c7.9809,12.39148 21.86766,20.64125 37.66,20.64125c6.33052,0 12.34834,-1.33623 17.815,-3.71875l-29.82,52.21125c-46.32475,-5.88858 -82.075,-45.35154 -82.075,-93.2925c0,-17.15957 4.64833,-33.18993 12.6525,-47.03125zM112,76.16c19.84695,0 35.84,15.99305 35.84,35.84c0,6.36684 -1.65904,12.32713 -4.55,17.5c-0.00292,0.00291 -0.00584,0.00583 -0.00875,0.00875c-0.05547,0.08568 -0.108,0.17323 -0.1575,0.2625c-6.16245,10.79923 -17.75773,18.06875 -31.12375,18.06875c-19.84695,0 -35.84,-15.99305 -35.84,-35.84c0,-19.84695 15.99305,-35.84 35.84,-35.84zM138.7575,76.16h60.2525c4.54682,11.04473 7.07,23.14265 7.07,35.84c0,52.01201 -42.06799,94.08 -94.08,94.08c-0.70706,0 -1.40544,-0.03703 -2.10875,-0.0525l41.01125,-71.81125c0.09888,-0.16907 0.18657,-0.34445 0.2625,-0.525c3.57987,-6.43383 5.635,-13.82588 5.635,-21.69125c0,-14.65582 -7.11844,-27.65982 -18.0425,-35.84z"/></g></g></svg>
