<?xml version="1.0"?>
<svg xmlns="http://www.w3.org/2000/svg" xmlns:xlink="http://www.w3.org/1999/xlink" version="1.1" viewBox="0 0 224 224" width="500px" height="500px"><g fill="none" fill-rule="nonzero" stroke="none" stroke-width="1" stroke-linecap="butt" stroke-linejoin="miter" stroke-miterlimit="10" stroke-dasharray="" stroke-dashoffset="0" font-family="none" font-weight="none" font-size="none" text-anchor="none" style="mix-blend-mode: normal"><path d="M0,224v-224h224v224z" fill="none"/><g fill="#d2d2d2"><path d="M112,8.91625c-57.04444,0 -103.08375,46.03931 -103.08375,103.08375c0,57.04444 46.03931,103.08375 103.08375,103.08375c57.04444,0 103.08375,-46.03931 103.08375,-103.08375c0,-57.04444 -46.03931,-103.08375 -103.08375,-103.08375zM112,17.96375c52.19588,0 94.03625,41.84037 94.03625,94.03625c0,52.19588 -41.84037,94.03625 -94.03625,94.03625c-52.19588,0 -94.03625,-41.84037 -94.03625,-94.03625c0,-52.19588 41.84037,-94.03625 94.03625,-94.03625zM98.2625,62.72c-26.57873,0 -46.57955,4.60298 -47.55625,4.83h-0.00875v0.00875c-7.17194,1.67457 -11.69484,8.95669 -10.0275,16.12625c1.66729,7.17601 8.94836,11.68765 16.1175,10.045h0.035l0.02625,-0.00875c-0.50897,0.12414 0.22324,-0.05322 0.76125,-0.16625c0.53803,-0.11303 1.33239,-0.26965 2.3625,-0.46375c2.06023,-0.38824 5.05112,-0.90921 8.77625,-1.42625c7.45033,-1.03409 17.83049,-2.065 29.51375,-2.065h0.28c19.32177,0.02643 47.08613,2.99168 69.37,16.07375h0.00875v0.00875c2.11647,1.23397 4.47617,1.8375 6.79,1.8375c4.61015,0 9.1156,-2.40753 11.6025,-6.64125c3.72964,-6.35173 1.56827,-14.65847 -4.78625,-18.3925c-27.96936,-16.42075 -60.52753,-19.73425 -82.95,-19.76625zM98.2625,71.68h0.315c21.52606,0.03136 52.63005,3.39788 78.40875,18.5325c2.18436,1.28357 2.88025,3.95556 1.60125,6.13375c-0.85517,1.45588 -2.33984,2.21375 -3.87625,2.21375c-0.76216,0 -1.52163,-0.18753 -2.2575,-0.6125l-0.0175,-0.00875c-24.53756,-14.39827 -53.69787,-17.27128 -73.885,-17.29875h-0.28875c-12.20858,0 -22.97044,1.07427 -30.73875,2.1525c-3.88416,0.53911 -7.02582,1.0752 -9.21375,1.4875c-1.09397,0.20617 -1.94958,0.38214 -2.54625,0.5075c-0.56078,0.11782 -0.52056,0.10078 -0.97125,0.21c-2.48974,0.57047 -4.82604,-0.87755 -5.39875,-3.3425c-0.57206,-2.45987 0.87835,-4.79503 3.33375,-5.3725c0.68089,-0.15824 19.99341,-4.6025 45.535,-4.6025zM98.525,98.56875c-11.22848,0.09399 -20.92253,1.1432 -28,2.2225c-7.07748,1.0793 -11.09756,2.05515 -12.39,2.42375c-6.41206,1.81815 -10.21209,8.61386 -8.39125,15.0325c1.82667,6.42509 8.62099,10.20628 15.0325,8.3825l0.02625,-0.00875h0.0175c0.11621,-0.02733 0.29774,-0.06973 0.53375,-0.1225c0.47205,-0.10555 1.16853,-0.24861 2.065,-0.42875c1.79294,-0.36028 4.37799,-0.84697 7.5775,-1.33c6.39903,-0.96605 15.242,-1.94285 25.0075,-2.03c17.30733,-0.15259 36.93978,2.3908 56.09625,14.32375c1.99752,1.25376 4.25154,1.855 6.44,1.855c4.05777,0 8.04828,-2.05768 10.3425,-5.73125c3.53105,-5.66233 1.77176,-13.24776 -3.89375,-16.77375c-24.12318,-15.02909 -49.99697,-17.9846 -70.46375,-17.815zM98.60375,107.52c19.53962,-0.16191 43.52292,2.68123 65.65125,16.4675c1.54729,0.96298 1.99063,2.87704 1.02375,4.4275c-0.62674,1.00356 -1.66244,1.51375 -2.73875,1.51375c-0.58914,0 -1.1508,-0.14909 -1.68,-0.48125l-0.00875,-0.00875c-21.01686,-13.0957 -42.66553,-15.84974 -60.92625,-15.68875c-10.31387,0.09206 -19.55021,1.12089 -26.2675,2.135c-3.35865,0.50705 -6.08429,1.01379 -8.00625,1.4c-0.96098,0.19308 -1.72073,0.35244 -2.2575,0.4725c-0.2684,0.06003 -0.47994,0.11121 -0.63875,0.14875c-0.15882,0.03763 0.09153,-0.04389 -0.4725,0.1225l0.04375,-0.0175c-1.71521,0.4879 -3.46978,-0.47628 -3.96375,-2.21375c-0.49913,-1.75947 0.45859,-3.46722 2.21375,-3.96375h0.00875c-0.05148,0.01478 4.55761,-1.16121 11.2875,-2.1875c6.72973,-1.02608 16.02117,-2.03658 26.73125,-2.12625zM100.8,129.92875c-19.52781,0.00448 -33.98397,4.75091 -34.90375,5.0575c-5.81949,1.93655 -9.01779,8.34913 -7.07875,14.16625c1.93979,5.81936 8.35271,9.04839 14.18375,7.07l-0.07,0.02625c0.44883,-0.14426 0.71457,-0.23816 2.07375,-0.60375c1.35917,-0.36561 3.35827,-0.85538 5.85375,-1.3475c4.99095,-0.98425 11.98869,-1.96661 19.94125,-1.96875c19.42946,-0.00432 32.69961,4.64822 43.0675,11.55875v-0.00875c1.8985,1.26814 4.0766,1.89 6.20375,1.89c3.61379,0 7.18935,-1.78532 9.3275,-4.99625c3.39832,-5.10118 1.99239,-12.11847 -3.10625,-15.5225c-16.33049,-10.88541 -34.70483,-15.33049 -55.4925,-15.32125zM100.8,138.88875c19.53233,-0.00851 35.81558,4.01305 50.5225,13.81625c1.06752,0.71886 1.33364,2.03689 0.62125,3.10625c-0.45129,0.67771 -1.14069,0.9975 -1.8725,0.9975c-0.43541,0 -0.83849,-0.11224 -1.23375,-0.37625v-0.00875c-11.79916,-7.86432 -27.14695,-13.05964 -48.0375,-13.055c-8.68616,0.00234 -16.2375,1.06293 -21.67375,2.135c-2.71812,0.53603 -4.91413,1.0747 -6.44875,1.4875c-1.53462,0.41279 -2.87111,0.85036 -2.485,0.72625l-0.035,0.00875l-0.035,0.00875c-1.1936,0.405 -2.40102,-0.1943 -2.80875,-1.4175c-0.40772,-1.2232 0.19869,-2.43028 1.4175,-2.835c0.26293,-0.08763 14.00936,-4.58945 32.06875,-4.59375z"/></g></g></svg>
