<?xml version="1.0"?>
<svg xmlns="http://www.w3.org/2000/svg" xmlns:xlink="http://www.w3.org/1999/xlink" version="1.1" viewBox="0 0 224 224" width="500px" height="500px"><g fill="none" fill-rule="nonzero" stroke="none" stroke-width="1" stroke-linecap="butt" stroke-linejoin="miter" stroke-miterlimit="10" stroke-dasharray="" stroke-dashoffset="0" font-family="none" font-weight="none" font-size="none" text-anchor="none" style="mix-blend-mode: normal"><path d="M0,224v-224h224v224z" fill="none"/><g fill="#d2d2d2"><path d="M53.76,13.44c-22.2208,0 -40.32,18.0992 -40.32,40.32v59.94625l60.12125,30.05625c2.24,1.0304 3.22665,3.71875 2.19625,5.95875c-0.7616,1.6576 -2.3751,2.59875 -4.0775,2.59875c-0.6272,0 -1.25405,-0.1337 -1.88125,-0.4025l-56.35875,-28.18375v46.50625c0,22.2208 18.0992,40.32 40.32,40.32h116.48c22.2208,0 40.32,-18.0992 40.32,-40.32v-116.48c0,-22.2208 -18.0992,-40.32 -40.32,-40.32zM53.76,22.4h116.48c17.2928,0 31.36,14.0672 31.36,31.36v116.48c0,17.2928 -14.0672,31.36 -31.36,31.36h-116.48c-17.2928,0 -31.36,-14.0672 -31.36,-31.36v-31.99l18.0075,9.00375c-0.0448,0.9408 -0.0875,1.88545 -0.0875,2.82625c0,18.5472 15.0528,33.6 33.6,33.6c18.5472,0 33.6,-15.0528 33.6,-33.6c0,-3.808 -0.62685,-7.52955 -1.88125,-11.06875l21.28,-16.03875c4.5248,1.6576 9.27325,2.4675 14.20125,2.4675c23.4752,0 42.56,-19.0848 42.56,-42.56c0,-23.4752 -19.0848,-42.56 -42.56,-42.56c-23.4752,0 -42.56,19.0848 -42.56,42.56c0,5.0176 0.8526,9.9008 2.555,14.56l-15.46125,21.14875c-3.7184,-1.3888 -7.70175,-2.10875 -11.73375,-2.10875c-7.7952,0 -14.9604,2.6425 -20.65,7.1225l-30.87,-15.40875v-54.43375c0,-17.2928 14.0672,-31.36 31.36,-31.36zM141.12,49.28c18.5472,0 33.6,15.0528 33.6,33.6c0,18.5472 -15.0528,33.6 -33.6,33.6c-4.6144,0 -9.00445,-0.89425 -13.08125,-2.68625c-1.4784,-0.672 -3.1808,-0.4508 -4.48,0.49l-26.075,19.67c-1.7024,1.2992 -2.23475,3.5861 -1.33875,5.5125c1.6128,3.3152 2.415,6.89535 2.415,10.61375c0,13.5744 -11.0656,24.64 -24.64,24.64c-12.992,0 -23.7461,-10.17345 -24.5525,-22.98625l16.44125,8.19875l0.14,0.0525l0.0875,0.04375c1.792,0.8512 3.67255,1.25125 5.64375,1.25125c5.2416,0 10.03835,-3.04745 12.18875,-7.79625c3.0912,-6.6752 0.21665,-14.60795 -6.41375,-17.78875l-14.91,-7.42875c3.4048,-1.792 7.2534,-2.82625 11.375,-2.82625c3.9424,0 7.7056,0.89425 11.2,2.68625c1.9712,1.0304 4.3883,0.45325 5.6875,-1.33875l13.88625,-18.99625l5.11,-7.07875c0.9408,-1.2544 1.162,-2.95785 0.49,-4.43625c-1.8368,-4.2112 -2.77375,-8.73705 -2.77375,-13.39625c0,-18.5472 15.0528,-33.6 33.6,-33.6zM141.12,58.24c-13.55523,0 -24.64,11.08477 -24.64,24.64c0,13.55523 11.08477,24.64 24.64,24.64c13.55523,0 24.64,-11.08477 24.64,-24.64c0,-13.55523 -11.08477,-24.64 -24.64,-24.64zM141.12,67.2c8.71289,0 15.68,6.96711 15.68,15.68c0,8.71289 -6.96711,15.68 -15.68,15.68c-8.71289,0 -15.68,-6.96711 -15.68,-15.68c0,-8.71289 6.96711,-15.68 15.68,-15.68z"/></g><path d="M112,224c-61.85589,0 -112,-50.14411 -112,-112v0c0,-61.85589 50.14411,-112 112,-112v0c61.85589,0 112,50.14411 112,112v0c0,61.85589 -50.14411,112 -112,112z" fill="none"/><path d="M112,219.52c-59.38166,0 -107.52,-48.13834 -107.52,-107.52v0c0,-59.38166 48.13834,-107.52 107.52,-107.52h0c59.38166,0 107.52,48.13834 107.52,107.52v0c0,59.38166 -48.13834,107.52 -107.52,107.52z" fill="none"/></g></svg>
