<?xml version="1.0"?>
<svg xmlns="http://www.w3.org/2000/svg" xmlns:xlink="http://www.w3.org/1999/xlink" version="1.1" viewBox="0 0 224 224" width="500px" height="500px"><g fill="none" fill-rule="nonzero" stroke="none" stroke-width="1" stroke-linecap="butt" stroke-linejoin="miter" stroke-miterlimit="10" stroke-dasharray="" stroke-dashoffset="0" font-family="none" font-weight="none" font-size="none" text-anchor="none" style="mix-blend-mode: normal"><path d="M0,224v-224h224v224z" fill="none"/><g fill="#d2d2d2"><g id="surface1"><path d="M85.26,8.96c-0.455,-0.0175 -0.9275,0.0525 -1.3825,0.175c0,0 -20.615,6.51 -27.7375,27.23c-1.4,0.665 -32.34,15.7325 -40.6525,55.4925c-0.3675,0.6825 -0.5775,1.4525 -0.56,2.2225c0,0 0.035,0.35 0.0525,0.4025c-0.98,5.39 -1.54,11.2175 -1.54,17.5175c0,56.245 47.2675,80.1675 47.2675,80.1675c1.89,0.945 4.2,0.455 5.5125,-1.19c1.33,-1.6625 1.3125,-4.0075 -0.0175,-5.635c0,0 -4.7425,-6.0025 -8.4,-15.54c3.1325,3.325 7.1575,6.7375 11.9875,8.9775c1.8375,0.8575 4.025,0.3675 5.3375,-1.19c1.295,-1.5575 1.3825,-3.7975 0.21,-5.46c-1.9775,-2.8 -3.4475,-5.4775 -4.69,-7.9625l66.3425,22.1025c-5.9325,8.155 -13.2475,15.2425 -22.26,20.125c-2.0125,0.805 -3.1675,2.9225 -2.73,5.0575c0.4375,2.135 2.3275,3.64 4.4975,3.5875c0.0875,0 0.1575,0 0.245,0c0.1225,-0.0175 0.2625,-0.035 0.385,-0.0525c0.0175,0.0175 0.0175,0.0175 0.0175,0c23.1525,-1.365 40.74,-8.33 54.005,-17.955c1.295,-0.28 2.3975,-1.1025 3.0275,-2.24c0.035,-0.0525 0.035,-0.1225 0.07,-0.175c11.3925,-9.0825 19.3375,-20.1425 24.6575,-31.0275c11.7075,-23.905 11.655,-47.11 11.655,-47.11c0,-10.6925 -2.0825,-21.42 -5.7925,-31.6925c-1.0675,-4.34 -2.9225,-8.925 -5.7575,-13.72c-0.245,-0.4375 -0.5775,-0.8225 -0.9625,-1.155c-16.345,-29.505 -47.46,-51.9925 -86.0475,-51.9925c-4.41,0 -8.3825,0.945 -12.2325,1.785l2.52,-3.78c1.085,-1.6275 0.98,-3.7625 -0.2275,-5.285c-1.225,-1.5225 -3.2725,-2.0825 -5.11,-1.3825c0,0 -3.43,1.5575 -7.35,3.9025c-0.1575,-2.31 -2.03,-4.13 -4.34,-4.2zM74.62,24.395l-2.4675,4.97c-1.0325,2.0825 -0.2975,4.62 1.6975,5.81c1.995,1.2075 4.585,0.6825 5.95,-1.2075c1.785,-2.485 3.71,-3.465 5.67,-5.3375c0.945,2.205 3.465,3.29 5.7225,2.4325c0,0 11.4275,-4.1825 20.8075,-4.1825c41.1075,0 72.87,28.4375 84.6125,61.81c1.9425,9.1175 -0.805,15.855 -4.7425,21.1575c-1.82,2.4675 -3.92,4.515 -5.9675,6.2125c0.875,-2.3275 1.6275,-4.865 2.1875,-7.6825c0.28,-1.33 -0.07,-2.73 -0.945,-3.78c-0.875,-1.05 -2.1875,-1.645 -3.5525,-1.6275c-2.135,0.0525 -3.9375,1.5925 -4.3225,3.6925c-1.9775,10.185 -6.615,16.0825 -10.605,19.425c1.26,-8.3825 1.575,-13.8775 1.575,-13.8775c0.105,-2.3275 -1.5925,-4.34 -3.9025,-4.6375c-2.31,-0.315 -4.4625,1.2075 -4.97,3.5c-1.575,7.4025 -6.5275,12.0575 -11.1125,14.9975c0.7525,-3.99 1.47,-8.89 1.8375,-16.73c0.5075,-1.12 0.5425,-2.38 0.0875,-3.5175c0.07,-2.2575 0.14,-4.515 0.14,-7.2625c0,-18.655 -10.1675,-30.38 -19.9675,-36.7325c-9.8,-6.3525 -19.6,-7.9975 -19.6,-7.9975c-0.2975,-0.0525 -0.595,-0.0875 -0.8925,-0.07c-2.3275,0.0175 -4.235,1.8375 -4.3925,4.165c-0.1575,2.31 1.4875,4.375 3.78,4.725c0,0 8.12,1.435 16.24,6.7025c3.1325,2.0125 6.195,4.5325 8.8025,7.735l-31.9725,-8.96c-0.035,0 -0.0875,-0.0175 -0.14,-0.0175c-7.0175,-1.7325 -13.2825,-0.35 -19.3375,2.625c-7.7525,3.7975 -18.41,11.1125 -28.56,18.095c0.6125,-2.7125 0.1925,-3.0275 1.61,-6.4925c0.525,-1.225 0.455,-2.625 -0.175,-3.7975c-5.46,-10.2725 -4.305,-17.465 -2.1175,-22.5575c2.1875,-5.0925 5.4425,-7.6825 5.4425,-7.6825c0.8925,-0.7175 1.4875,-1.75 1.6275,-2.8875c1.4175,-10.3075 6.7375,-16.7825 11.9525,-21.0175zM47.11,53.13c-1.9775,5.04 -2.66,11.8125 -0.7,19.5825c-0.1575,0.14 -0.2975,0.28 -0.4375,0.4375c-7.1225,7.8225 -12.4075,20.09 -13.9475,35.0875c-3.08,-2.66 -5.3725,-5.425 -6.475,-7.875c-1.3825,-3.08 -1.5575,-4.9 -1.5925,-5.635c3.9025,-20.9125 14.455,-34.02 23.1525,-41.5975zM71.96,63.105c-8.68,0 -9.24,8.575 -9.24,8.575c0,0 0.56,4.48 4.48,4.48c3.92,0 8.4,-4.2 8.96,-8.96c0.3325,-2.8875 -1.785,-4.095 -4.2,-4.095zM98.56,76.2475c1.085,0.07 2.2225,0.245 3.4825,0.5425l39.9175,11.1825c0.8925,3.115 1.4,6.615 1.4,10.5875c0,2.2575 -0.07,4.0075 -0.105,5.9675l-61.04,24.4125l-23.17,-31.85c10.885,-7.6475 21.945,-14.5075 29.715,-18.305c3.8325,-1.8725 6.5625,-2.73 9.8,-2.5375zM44.695,92.61l0.8225,1.12c-0.5075,2.7125 -0.7175,4.5325 -0.7175,4.5325c-0.105,1.6975 0.7525,3.325 2.2225,4.1825c1.4875,0.84 3.3075,0.7875 4.725,-0.1575l3.675,5.0575l-15.015,10.3075c-0.035,-0.9625 -0.035,-1.855 -0.0525,-2.7475c0.1925,-8.575 1.8725,-16.065 4.34,-22.295zM201.3375,111.65c0.105,1.61 0.2625,3.22 0.2625,4.83c0,0 -0.0525,21.315 -10.745,43.19c-2.205,4.48 -4.8475,8.9775 -7.9975,13.3175c3.955,-13.3875 5.2675,-24.605 5.2675,-24.605c0.1575,-1.295 -0.245,-2.5725 -1.12,-3.535c-0.8575,-0.9625 -2.0825,-1.505 -3.3775,-1.4875c-1.89,0.0175 -3.5525,1.225 -4.165,3.01c-2.3275,6.6325 -9.065,11.7075 -15.645,14.9625c-1.645,0.805 -3.255,1.4875 -4.725,2.065c1.26,-3.36 2.4325,-6.685 3.43,-9.94c1.68,-5.5125 3.01,-10.815 4.0425,-15.6975c2.1875,-1.0325 6.6325,-3.465 11.025,-8.12c0.5075,0.1925 1.05,0.28 1.61,0.28c1.19,0 1.2775,-0.1575 1.5575,-0.2625c0.28,-0.0875 0.5075,-0.1575 0.7525,-0.2625c0.5075,-0.1925 1.0325,-0.455 1.6625,-0.7525c1.225,-0.63 2.7825,-1.5225 4.5325,-2.7125c3.5,-2.3625 7.77,-5.88 11.375,-10.7275c0.805,-1.1025 1.5575,-2.31 2.2575,-3.5525zM22.4,111.7725c2.31,2.625 5.32,5.18 9.135,7.42c0.525,9.205 2.8875,22.05 13.93,39.97c0.07,0.1225 0.1575,0.245 0.245,0.3675c0.0175,0 0.0175,0 0.0175,0c0.8925,4.7425 2.2225,9.03 3.71,12.95c-12.1975,-10.92 -27.0375,-29.6625 -27.0375,-60.48c0,-0.0875 0,-0.14 0,-0.2275zM142.8875,114.31c-0.42,6.6675 -1.05,11.2 -1.645,13.7375c-0.49,2.065 -0.9275,2.975 -1.05,3.2025c-1.435,1.4525 -1.715,3.675 -0.6825,5.425c1.0325,1.75 3.115,2.59 5.075,2.0475c0,0 0.7,-0.3675 0.7525,-0.385l0.035,0.07c0,0 0.1925,-0.1575 0.245,-0.21c1.015,-0.28 6.4925,-2.2925 12.74,-7.2975c-1.085,6.125 -2.065,12.285 -4.41,19.9325c-1.8375,6.02 -4.2175,12.1975 -7.0875,18.2525l-28,-45.15zM60.69,114.59l16.3275,22.4525c1.2075,1.645 3.3775,2.275 5.285,1.505l28.0875,-11.235l31.6575,51.03c-0.0175,0.035 -0.0525,0.105 -0.0875,0.1575l-77.2275,-25.76c-0.4025,-0.1925 -0.8225,-0.3325 -1.2425,-0.42l-12.7925,-4.2525c-0.14,-0.0525 -0.28,-0.0875 -0.4375,-0.1225c-0.0175,0 -0.035,-0.0175 -0.07,-0.0175h-0.0175c-0.2625,-0.0525 -0.525,-0.0875 -0.77,-0.105c-4.3575,-8.085 -6.7025,-14.63 -7.8575,-20.09zM175.91,164.01c-1.9425,7.8925 -4.83,17.185 -9.03,25.2875c-8.68,6.51 -19.635,11.69 -33.4425,14.5425c9.0825,-8.4175 15.82,-18.83 20.9475,-29.54c1.4175,-0.3325 6.72,-1.6625 13.3875,-4.9525c2.6775,-1.3125 5.425,-3.36 8.1375,-5.3375z"/></g></g></g></svg>
